<svg width="43" height="40" viewBox="0 0 43 40" fill="none" xmlns="http://www.w3.org/2000/svg">
<g clip-path="url(#clip0_132_1031)">
<path opacity="0.925" fill-rule="evenodd" clip-rule="evenodd" d="M6.75676 0.270264C11.7622 4.55243 16.627 9.05675 21.3514 13.7838C26.0362 9.27945 30.7205 4.77475 35.4054 0.270264C36.2108 4.13097 35.9405 7.91459 34.5946 11.6216C32.2622 14.4049 29.8297 17.1076 27.2973 19.7297C28.9335 22.087 30.9157 24.0686 33.2432 25.6757C34.4957 24.694 35.667 23.613 36.7568 22.4324C38.4405 24.98 38.5308 27.593 37.027 30.2703C38.7389 31.9822 40.4503 33.6935 42.1622 35.4054C42.973 38.9189 41.6216 40.2703 38.1081 39.4595C36.5768 37.9281 35.0449 36.3962 33.5135 34.8649C30.7254 37.0881 27.7524 37.4481 24.5946 35.9459C24.0427 35.6746 23.9524 35.3146 24.3243 34.8649C25.4151 33.8649 26.4059 32.7838 27.2973 31.6216C25.4957 29.4595 23.5135 27.4773 21.3514 25.6757C19.1892 27.4773 17.207 29.4595 15.4054 31.6216C16.2968 32.7838 17.2876 33.8649 18.3784 34.8649C18.7503 35.3146 18.66 35.6746 18.1081 35.9459C14.9503 37.4481 11.9773 37.0881 9.18919 34.8649C7.65784 36.3962 6.12611 37.9281 4.59459 39.4595C1.08108 40.2703 -0.27027 38.9189 0.540541 35.4054C2.25227 33.6935 3.96395 31.9822 5.67568 30.2703C4.172 27.593 4.26211 24.98 5.94595 22.4324C7.03568 23.613 8.20703 24.694 9.45946 25.6757C11.787 24.0686 13.7692 22.087 15.4054 19.7297C12.873 17.1076 10.4405 14.4049 8.10811 11.6216C6.94324 7.93188 6.49297 4.14799 6.75676 0.270264Z" fill="#FEFFFE"/>
</g>
<defs>
<clipPath id="clip0_132_1031">
<rect width="42.7027" height="40" fill="white"/>
</clipPath>
</defs>
</svg>
