<svg width="40" height="40" viewBox="0 0 40 40" fill="none" xmlns="http://www.w3.org/2000/svg">
<path d="M18.3334 11.6667H21.6667V15H18.3334V11.6667ZM18.3334 18.3333H21.6667V28.3333H18.3334V18.3333ZM20 3.33334C10.8 3.33334 3.33337 10.8 3.33337 20C3.33337 29.2 10.8 36.6667 20 36.6667C29.2 36.6667 36.6667 29.2 36.6667 20C36.6667 10.8 29.2 3.33334 20 3.33334ZM20 33.3333C12.65 33.3333 6.66671 27.35 6.66671 20C6.66671 12.65 12.65 6.66668 20 6.66668C27.35 6.66668 33.3334 12.65 33.3334 20C33.3334 27.35 27.35 33.3333 20 33.3333Z" fill="white"/>
</svg>
