<svg width="40" height="40" viewBox="0 0 40 40" fill="none" xmlns="http://www.w3.org/2000/svg">
<path d="M29.0934 5L35 5.005L35.0034 10.8767L25.8917 19.9867L30.605 24.7017L32.9634 22.345L35.3217 24.7017L31.1967 28.8267L35.91 33.5417L33.5534 35.8983L28.8384 31.1833L24.715 35.3083L22.3567 32.9517L24.7134 30.5933L19.9984 25.88L15.285 30.5933L17.6434 32.9517L15.2867 35.3083L11.1617 31.1833L6.44669 35.8983L4.09003 33.5417L8.80503 28.825L4.68003 24.7017L7.03669 22.345L9.39336 24.7L14.105 19.9867L5.00503 10.8867L4.99836 5L10.9084 5.005L19.9967 14.095L29.0934 5ZM16.46 22.3433L11.7467 27.0567L12.9267 28.235L17.6384 23.5217L16.46 22.3433ZM31.6667 8.335H30.4717L22.355 16.45L23.5317 17.6283L31.6667 9.49667V8.335ZM8.33336 8.335V9.50167L27.0684 28.2367L28.2467 27.0583L9.52503 8.33667L8.33336 8.335Z" fill="white"/>
</svg>
