<svg width="49" height="40" viewBox="0 0 49 40" fill="none" xmlns="http://www.w3.org/2000/svg">
<g clip-path="url(#clip0_132_1026)">
<path opacity="0.945" fill-rule="evenodd" clip-rule="evenodd" d="M21.9444 0.277784C31.4739 -0.747994 36.6594 3.51128 37.5 13.0556C46.2222 13.2567 49.8333 17.7011 48.3333 26.3889C45.8705 31.7928 41.6116 34.385 35.5555 34.1667C31.3355 33.9683 27.3544 32.95 23.6111 31.1111C26.4066 30.2233 28.9066 28.8345 31.1111 26.9445C33.6933 20.0578 31.2855 15.9839 23.8889 14.7222C21.5544 14.8511 19.795 15.8695 18.6111 17.7778C18.88 19.1528 19.6205 20.1711 20.8333 20.8333C21.5466 17.5217 23.3983 16.6883 26.3889 18.3333C27.9194 21.1622 27.3639 23.5695 24.7222 25.5556C20.7889 26.5983 17.7333 25.395 15.5555 21.9445C11.2411 12.7622 13.3705 5.54028 21.9444 0.277784Z" fill="#FEFFFE"/>
<path opacity="0.927" fill-rule="evenodd" clip-rule="evenodd" d="M4.72221 19.7222C10.1 19.0728 13.2483 21.3872 14.1667 26.6667C13.615 28.0294 13.5222 29.4183 13.8889 30.8333C17.7367 35.3283 22.6439 37.4578 28.6111 37.2222C20.5233 40.9839 12.7455 40.4283 5.27776 35.5556C2.37271 33.3506 0.706041 30.4806 0.277763 26.9444C0.224318 23.5228 1.70576 21.1156 4.72221 19.7222Z" fill="#FEFFFE"/>
</g>
<defs>
<clipPath id="clip0_132_1026">
<rect width="48.8889" height="40" fill="white"/>
</clipPath>
</defs>
</svg>
